<mxfile host="app.diagrams.net" modified="2024-02-11T18:31:50.549Z" agent="Mozilla/5.0 (Windows NT 10.0; Win64; x64) AppleWebKit/537.36 (KHTML, like Gecko) Chrome/121.0.0.0 Safari/537.36 Edg/121.0.0.0" etag="7xHnFdWfWPNonT3vwSth" version="23.1.2" type="google">
  <diagram name="Page-1" id="5T_YC4kcuNcBQj2MiASD">
    <mxGraphModel grid="1" page="1" gridSize="10" guides="1" tooltips="1" connect="1" arrows="1" fold="1" pageScale="1" pageWidth="827" pageHeight="1169" math="0" shadow="0">
      <root>
        <mxCell id="0" />
        <mxCell id="1" parent="0" />
        <mxCell id="dBDPDZmybZHjLRNopPOm-32" style="rounded=1;orthogonalLoop=1;jettySize=auto;html=1;exitX=0.5;exitY=0;exitDx=0;exitDy=0;entryX=0;entryY=1;entryDx=0;entryDy=0;endArrow=none;endFill=0;" edge="1" parent="1">
          <mxGeometry relative="1" as="geometry">
            <mxPoint x="498.6620519852129" y="60.07754649248113" as="targetPoint" />
          </mxGeometry>
        </mxCell>
        <mxCell id="dBDPDZmybZHjLRNopPOm-33" style="rounded=1;orthogonalLoop=1;jettySize=auto;html=1;entryX=0.5;entryY=1;entryDx=0;entryDy=0;exitX=0.5;exitY=0;exitDx=0;exitDy=0;endArrow=none;endFill=0;" edge="1" parent="1">
          <mxGeometry relative="1" as="geometry">
            <mxPoint x="442.5" y="55.200000000000045" as="targetPoint" />
          </mxGeometry>
        </mxCell>
        <mxCell id="dBDPDZmybZHjLRNopPOm-34" style="rounded=1;orthogonalLoop=1;jettySize=auto;html=1;entryX=0.5;entryY=1;entryDx=0;entryDy=0;exitX=0.5;exitY=0;exitDx=0;exitDy=0;endArrow=none;endFill=0;" edge="1" parent="1">
          <mxGeometry relative="1" as="geometry">
            <mxPoint x="367.5" y="55.200000000000045" as="targetPoint" />
          </mxGeometry>
        </mxCell>
        <mxCell id="cZ-kEsk4A76ILp2WTgLH-54" style="rounded=0;orthogonalLoop=1;jettySize=auto;html=1;exitX=1;exitY=0.5;exitDx=0;exitDy=0;entryX=0;entryY=0.5;entryDx=0;entryDy=0;endArrow=none;endFill=0;" edge="1" parent="1">
          <mxGeometry relative="1" as="geometry">
            <mxPoint x="364" y="390.0000000000001" as="sourcePoint" />
          </mxGeometry>
        </mxCell>
        <mxCell id="cZ-kEsk4A76ILp2WTgLH-36" style="rounded=0;orthogonalLoop=1;jettySize=auto;html=1;exitX=0.5;exitY=1;exitDx=0;exitDy=0;entryX=0;entryY=0;entryDx=0;entryDy=0;endArrow=none;endFill=0;" edge="1" parent="1">
          <mxGeometry relative="1" as="geometry">
            <mxPoint x="430" y="600" as="sourcePoint" />
          </mxGeometry>
        </mxCell>
        <mxCell id="cZ-kEsk4A76ILp2WTgLH-38" style="rounded=0;orthogonalLoop=1;jettySize=auto;html=1;exitX=0.5;exitY=1;exitDx=0;exitDy=0;entryX=0;entryY=0;entryDx=0;entryDy=0;endArrow=none;endFill=0;" edge="1" parent="1">
          <mxGeometry relative="1" as="geometry">
            <mxPoint x="430" y="600" as="sourcePoint" />
          </mxGeometry>
        </mxCell>
        <mxCell id="cZ-kEsk4A76ILp2WTgLH-39" style="rounded=0;orthogonalLoop=1;jettySize=auto;html=1;exitX=0.5;exitY=1;exitDx=0;exitDy=0;entryX=0;entryY=0;entryDx=0;entryDy=0;endArrow=none;endFill=0;" edge="1" parent="1">
          <mxGeometry relative="1" as="geometry">
            <mxPoint x="430" y="600" as="sourcePoint" />
          </mxGeometry>
        </mxCell>
        <mxCell id="cZ-kEsk4A76ILp2WTgLH-40" style="rounded=0;orthogonalLoop=1;jettySize=auto;html=1;exitX=0.5;exitY=1;exitDx=0;exitDy=0;entryX=1;entryY=0;entryDx=0;entryDy=0;endArrow=none;endFill=0;" edge="1" parent="1">
          <mxGeometry relative="1" as="geometry">
            <mxPoint x="430" y="600" as="sourcePoint" />
          </mxGeometry>
        </mxCell>
        <mxCell id="cZ-kEsk4A76ILp2WTgLH-41" style="rounded=0;orthogonalLoop=1;jettySize=auto;html=1;exitX=0.5;exitY=1;exitDx=0;exitDy=0;entryX=1;entryY=0;entryDx=0;entryDy=0;endArrow=none;endFill=0;" edge="1" parent="1">
          <mxGeometry relative="1" as="geometry">
            <mxPoint x="430" y="600" as="sourcePoint" />
          </mxGeometry>
        </mxCell>
        <mxCell id="xTe9xbJIrPCpYl-wwYux-94" style="rounded=0;orthogonalLoop=1;jettySize=auto;html=1;exitX=0.5;exitY=0;exitDx=0;exitDy=0;entryX=0.495;entryY=0.975;entryDx=0;entryDy=0;shape=link;entryPerimeter=0;" edge="1" parent="1" source="xTe9xbJIrPCpYl-wwYux-115" target="xTe9xbJIrPCpYl-wwYux-116">
          <mxGeometry relative="1" as="geometry">
            <mxPoint x="1140" y="531.6000000000001" as="targetPoint" />
            <mxPoint x="1140" y="649" as="sourcePoint" />
          </mxGeometry>
        </mxCell>
        <mxCell id="xTe9xbJIrPCpYl-wwYux-109" value="N" style="edgeLabel;html=1;align=center;verticalAlign=middle;resizable=0;points=[];fontSize=14;" connectable="0" vertex="1" parent="xTe9xbJIrPCpYl-wwYux-94">
          <mxGeometry x="0.6883" y="-1" relative="1" as="geometry">
            <mxPoint x="7" y="-3" as="offset" />
          </mxGeometry>
        </mxCell>
        <mxCell id="xTe9xbJIrPCpYl-wwYux-98" style="rounded=0;orthogonalLoop=1;jettySize=auto;html=1;exitX=0.5;exitY=1;exitDx=0;exitDy=0;entryX=0.5;entryY=0;entryDx=0;entryDy=0;" edge="1" parent="1" source="xTe9xbJIrPCpYl-wwYux-115" target="xTe9xbJIrPCpYl-wwYux-97">
          <mxGeometry relative="1" as="geometry">
            <mxPoint x="1140" y="689" as="sourcePoint" />
          </mxGeometry>
        </mxCell>
        <mxCell id="X2fCzPqbsDA_nEbmkDdk-4" value="year" style="ellipse;whiteSpace=wrap;html=1;align=center;" vertex="1" parent="1">
          <mxGeometry x="1025.08" y="1018.6" width="100" height="40" as="geometry" />
        </mxCell>
        <mxCell id="X2fCzPqbsDA_nEbmkDdk-5" value="semester" style="ellipse;whiteSpace=wrap;html=1;align=center;" vertex="1" parent="1">
          <mxGeometry x="1025.08" y="924.6" width="100" height="40" as="geometry" />
        </mxCell>
        <mxCell id="X2fCzPqbsDA_nEbmkDdk-6" value="professor" style="ellipse;whiteSpace=wrap;html=1;align=center;" vertex="1" parent="1">
          <mxGeometry x="1025.08" y="968.6" width="100" height="40" as="geometry" />
        </mxCell>
        <mxCell id="X2fCzPqbsDA_nEbmkDdk-7" value="semester course" style="whiteSpace=wrap;html=1;align=center;" vertex="1" parent="1">
          <mxGeometry x="1029.08" y="834.4" width="100" height="40" as="geometry" />
        </mxCell>
        <mxCell id="X2fCzPqbsDA_nEbmkDdk-9" value="" style="edgeStyle=none;orthogonalLoop=1;jettySize=auto;html=1;rounded=0;exitX=0;exitY=0.5;exitDx=0;exitDy=0;entryX=0;entryY=0.5;entryDx=0;entryDy=0;" edge="1" parent="1" source="X2fCzPqbsDA_nEbmkDdk-7" target="X2fCzPqbsDA_nEbmkDdk-6">
          <mxGeometry width="100" relative="1" as="geometry">
            <mxPoint x="1043.08" y="863.6" as="sourcePoint" />
            <mxPoint x="1039.08" y="923.6" as="targetPoint" />
            <Array as="points">
              <mxPoint x="1010" y="854" />
              <mxPoint x="1010" y="989" />
            </Array>
          </mxGeometry>
        </mxCell>
        <mxCell id="X2fCzPqbsDA_nEbmkDdk-10" value="" style="edgeStyle=none;orthogonalLoop=1;jettySize=auto;html=1;rounded=0;exitX=0;exitY=0.5;exitDx=0;exitDy=0;entryX=0;entryY=0.5;entryDx=0;entryDy=0;" edge="1" parent="1" source="X2fCzPqbsDA_nEbmkDdk-7" target="X2fCzPqbsDA_nEbmkDdk-4">
          <mxGeometry width="100" relative="1" as="geometry">
            <mxPoint x="1033.08" y="872.6" as="sourcePoint" />
            <mxPoint x="1029.08" y="932.6" as="targetPoint" />
            <Array as="points">
              <mxPoint x="1010" y="854" />
              <mxPoint x="1009" y="1039" />
            </Array>
          </mxGeometry>
        </mxCell>
        <mxCell id="X2fCzPqbsDA_nEbmkDdk-11" value="" style="edgeStyle=none;orthogonalLoop=1;jettySize=auto;html=1;rounded=0;exitX=0;exitY=0.5;exitDx=0;exitDy=0;entryX=0;entryY=0.5;entryDx=0;entryDy=0;" edge="1" parent="1" source="X2fCzPqbsDA_nEbmkDdk-7" target="X2fCzPqbsDA_nEbmkDdk-12">
          <mxGeometry width="100" relative="1" as="geometry">
            <mxPoint x="1063.08" y="883.6" as="sourcePoint" />
            <mxPoint x="1029.08" y="1057.6000000000001" as="targetPoint" />
            <Array as="points">
              <mxPoint x="1010" y="854" />
              <mxPoint x="1010" y="1089" />
            </Array>
          </mxGeometry>
        </mxCell>
        <mxCell id="X2fCzPqbsDA_nEbmkDdk-12" value="course code" style="ellipse;whiteSpace=wrap;html=1;align=center;" vertex="1" parent="1">
          <mxGeometry x="1029.08" y="1068.6" width="100" height="40" as="geometry" />
        </mxCell>
        <mxCell id="X2fCzPqbsDA_nEbmkDdk-16" value="" style="edgeStyle=none;orthogonalLoop=1;jettySize=auto;html=1;rounded=0;exitX=0;exitY=0.5;exitDx=0;exitDy=0;entryX=0;entryY=0.5;entryDx=0;entryDy=0;" edge="1" parent="1" source="X2fCzPqbsDA_nEbmkDdk-7" target="X2fCzPqbsDA_nEbmkDdk-17">
          <mxGeometry width="100" relative="1" as="geometry">
            <mxPoint x="1029.92" y="854" as="sourcePoint" />
            <mxPoint x="1029" y="894" as="targetPoint" />
            <Array as="points">
              <mxPoint x="1010.92" y="854" />
              <mxPoint x="1010" y="904" />
            </Array>
          </mxGeometry>
        </mxCell>
        <mxCell id="X2fCzPqbsDA_nEbmkDdk-17" value="&lt;u&gt;code&lt;/u&gt;" style="ellipse;whiteSpace=wrap;html=1;align=center;dashed=1;aspect=fixed;" vertex="1" parent="1">
          <mxGeometry x="1032.08" y="886.4" width="88" height="35.2" as="geometry" />
        </mxCell>
        <mxCell id="xTe9xbJIrPCpYl-wwYux-2" style="edgeStyle=orthogonalEdgeStyle;rounded=0;orthogonalLoop=1;jettySize=auto;html=1;exitX=0.5;exitY=0;exitDx=0;exitDy=0;entryX=0.5;entryY=1;entryDx=0;entryDy=0;endArrow=none;endFill=0;" edge="1" parent="1" source="X2fCzPqbsDA_nEbmkDdk-7" target="xTe9xbJIrPCpYl-wwYux-118">
          <mxGeometry relative="1" as="geometry">
            <mxPoint x="1075.08" y="843" as="sourcePoint" />
            <mxPoint x="1079.0800000000002" y="781.0000000000001" as="targetPoint" />
          </mxGeometry>
        </mxCell>
        <mxCell id="xTe9xbJIrPCpYl-wwYux-111" value="1" style="edgeLabel;html=1;align=center;verticalAlign=middle;resizable=0;points=[];fontSize=14;" connectable="0" vertex="1" parent="xTe9xbJIrPCpYl-wwYux-2">
          <mxGeometry x="0.3841" y="-1" relative="1" as="geometry">
            <mxPoint x="7" as="offset" />
          </mxGeometry>
        </mxCell>
        <mxCell id="xTe9xbJIrPCpYl-wwYux-4" style="edgeStyle=orthogonalEdgeStyle;rounded=0;orthogonalLoop=1;jettySize=auto;html=1;exitX=0.495;exitY=0.035;exitDx=0;exitDy=0;entryX=0.25;entryY=1;entryDx=0;entryDy=0;shape=link;exitPerimeter=0;" edge="1" parent="1" source="xTe9xbJIrPCpYl-wwYux-118" target="xTe9xbJIrPCpYl-wwYux-115">
          <mxGeometry relative="1" as="geometry">
            <mxPoint x="1079.0800000000002" y="740.0000000000001" as="sourcePoint" />
            <mxPoint x="1115" y="689" as="targetPoint" />
          </mxGeometry>
        </mxCell>
        <mxCell id="xTe9xbJIrPCpYl-wwYux-112" value="N" style="edgeLabel;html=1;align=center;verticalAlign=middle;resizable=0;points=[];fontSize=13;" connectable="0" vertex="1" parent="xTe9xbJIrPCpYl-wwYux-4">
          <mxGeometry x="-0.7444" y="-4" relative="1" as="geometry">
            <mxPoint x="5" as="offset" />
          </mxGeometry>
        </mxCell>
        <mxCell id="xTe9xbJIrPCpYl-wwYux-7" style="edgeStyle=orthogonalEdgeStyle;rounded=0;orthogonalLoop=1;jettySize=auto;html=1;exitX=0.5;exitY=1;exitDx=0;exitDy=0;entryX=0;entryY=0.25;entryDx=0;entryDy=0;shape=link;" edge="1" parent="1" source="xTe9xbJIrPCpYl-wwYux-5" target="X2fCzPqbsDA_nEbmkDdk-7">
          <mxGeometry relative="1" as="geometry" />
        </mxCell>
        <mxCell id="xTe9xbJIrPCpYl-wwYux-113" value="N" style="edgeLabel;html=1;align=center;verticalAlign=middle;resizable=0;points=[];fontSize=14;" connectable="0" vertex="1" parent="xTe9xbJIrPCpYl-wwYux-7">
          <mxGeometry x="-0.7885" y="4" relative="1" as="geometry">
            <mxPoint x="6" y="-11" as="offset" />
          </mxGeometry>
        </mxCell>
        <mxCell id="xTe9xbJIrPCpYl-wwYux-59" style="edgeStyle=orthogonalEdgeStyle;rounded=0;orthogonalLoop=1;jettySize=auto;html=1;exitX=0;exitY=0.5;exitDx=0;exitDy=0;entryX=0;entryY=0.75;entryDx=0;entryDy=0;endArrow=none;endFill=0;" edge="1" parent="1" source="xTe9xbJIrPCpYl-wwYux-5" target="xTe9xbJIrPCpYl-wwYux-8">
          <mxGeometry relative="1" as="geometry">
            <Array as="points">
              <mxPoint x="850" y="690" />
              <mxPoint x="850" y="493" />
            </Array>
          </mxGeometry>
        </mxCell>
        <mxCell id="xTe9xbJIrPCpYl-wwYux-114" value="1" style="edgeLabel;html=1;align=center;verticalAlign=middle;resizable=0;points=[];fontSize=14;" connectable="0" vertex="1" parent="xTe9xbJIrPCpYl-wwYux-59">
          <mxGeometry x="-0.6248" y="-1" relative="1" as="geometry">
            <mxPoint x="8" y="5" as="offset" />
          </mxGeometry>
        </mxCell>
        <mxCell id="xTe9xbJIrPCpYl-wwYux-5" value="enrolled by" style="shape=rhombus;perimeter=rhombusPerimeter;whiteSpace=wrap;html=1;align=center;" vertex="1" parent="1">
          <mxGeometry x="856.0799999999999" y="660.4" width="120" height="60" as="geometry" />
        </mxCell>
        <mxCell id="xTe9xbJIrPCpYl-wwYux-8" value="professor" style="whiteSpace=wrap;html=1;align=center;" vertex="1" parent="1">
          <mxGeometry x="875.08" y="463.4" width="100" height="40" as="geometry" />
        </mxCell>
        <mxCell id="xTe9xbJIrPCpYl-wwYux-9" value="&lt;u&gt;ssn&lt;/u&gt;" style="ellipse;whiteSpace=wrap;html=1;align=center;" vertex="1" parent="1">
          <mxGeometry x="880.08" y="203" width="100" height="40" as="geometry" />
        </mxCell>
        <mxCell id="xTe9xbJIrPCpYl-wwYux-10" value="name" style="ellipse;whiteSpace=wrap;html=1;align=center;" vertex="1" parent="1">
          <mxGeometry x="880.08" y="253" width="100" height="40" as="geometry" />
        </mxCell>
        <mxCell id="xTe9xbJIrPCpYl-wwYux-11" value="contact" style="ellipse;whiteSpace=wrap;html=1;align=center;" vertex="1" parent="1">
          <mxGeometry x="880.08" y="304" width="100" height="40" as="geometry" />
        </mxCell>
        <mxCell id="xTe9xbJIrPCpYl-wwYux-12" value="photo" style="ellipse;whiteSpace=wrap;html=1;align=center;" vertex="1" parent="1">
          <mxGeometry x="880.08" y="353" width="100" height="40" as="geometry" />
        </mxCell>
        <mxCell id="xTe9xbJIrPCpYl-wwYux-13" value="gender" style="ellipse;whiteSpace=wrap;html=1;align=center;" vertex="1" parent="1">
          <mxGeometry x="880.08" y="403" width="100" height="40" as="geometry" />
        </mxCell>
        <mxCell id="xTe9xbJIrPCpYl-wwYux-14" value="" style="edgeStyle=none;orthogonalLoop=1;jettySize=auto;html=1;rounded=0;entryX=0;entryY=0.5;entryDx=0;entryDy=0;exitX=0;exitY=0.5;exitDx=0;exitDy=0;" edge="1" parent="1" source="xTe9xbJIrPCpYl-wwYux-8" target="xTe9xbJIrPCpYl-wwYux-9">
          <mxGeometry width="100" relative="1" as="geometry">
            <mxPoint x="860.08" y="154" as="sourcePoint" />
            <mxPoint x="870.08" y="214.39999999999998" as="targetPoint" />
            <Array as="points">
              <mxPoint x="860" y="483" />
              <mxPoint x="860.08" y="213" />
            </Array>
          </mxGeometry>
        </mxCell>
        <mxCell id="xTe9xbJIrPCpYl-wwYux-15" value="" style="edgeStyle=none;orthogonalLoop=1;jettySize=auto;html=1;rounded=0;entryX=0;entryY=0.5;entryDx=0;entryDy=0;exitX=0;exitY=0.5;exitDx=0;exitDy=0;" edge="1" parent="1" source="xTe9xbJIrPCpYl-wwYux-8" target="xTe9xbJIrPCpYl-wwYux-10">
          <mxGeometry width="100" relative="1" as="geometry">
            <mxPoint x="810.08" y="194" as="sourcePoint" />
            <mxPoint x="870.08" y="254" as="targetPoint" />
            <Array as="points">
              <mxPoint x="860" y="483" />
              <mxPoint x="860.08" y="263" />
            </Array>
          </mxGeometry>
        </mxCell>
        <mxCell id="xTe9xbJIrPCpYl-wwYux-16" value="" style="edgeStyle=none;orthogonalLoop=1;jettySize=auto;html=1;rounded=0;entryX=0;entryY=0.5;entryDx=0;entryDy=0;exitX=0;exitY=0.5;exitDx=0;exitDy=0;" edge="1" parent="1" source="xTe9xbJIrPCpYl-wwYux-8" target="xTe9xbJIrPCpYl-wwYux-11">
          <mxGeometry width="100" relative="1" as="geometry">
            <mxPoint x="810.08" y="258" as="sourcePoint" />
            <mxPoint x="870.08" y="318" as="targetPoint" />
            <Array as="points">
              <mxPoint x="860" y="483" />
              <mxPoint x="860.08" y="323" />
            </Array>
          </mxGeometry>
        </mxCell>
        <mxCell id="xTe9xbJIrPCpYl-wwYux-17" value="" style="edgeStyle=none;orthogonalLoop=1;jettySize=auto;html=1;rounded=0;entryX=0;entryY=0.5;entryDx=0;entryDy=0;exitX=0;exitY=0.5;exitDx=0;exitDy=0;" edge="1" parent="1" source="xTe9xbJIrPCpYl-wwYux-8" target="xTe9xbJIrPCpYl-wwYux-12">
          <mxGeometry width="100" relative="1" as="geometry">
            <mxPoint x="830.08" y="203" as="sourcePoint" />
            <mxPoint x="880.08" y="358" as="targetPoint" />
            <Array as="points">
              <mxPoint x="860" y="483" />
              <mxPoint x="860.08" y="373" />
            </Array>
          </mxGeometry>
        </mxCell>
        <mxCell id="xTe9xbJIrPCpYl-wwYux-18" value="" style="edgeStyle=none;orthogonalLoop=1;jettySize=auto;html=1;rounded=0;entryX=0;entryY=0.5;entryDx=0;entryDy=0;exitX=0;exitY=0.5;exitDx=0;exitDy=0;" edge="1" parent="1" source="xTe9xbJIrPCpYl-wwYux-8" target="xTe9xbJIrPCpYl-wwYux-13">
          <mxGeometry width="100" relative="1" as="geometry">
            <mxPoint x="810.08" y="368" as="sourcePoint" />
            <mxPoint x="870.08" y="428" as="targetPoint" />
            <Array as="points">
              <mxPoint x="860" y="483" />
              <mxPoint x="860.08" y="423" />
            </Array>
          </mxGeometry>
        </mxCell>
        <mxCell id="xTe9xbJIrPCpYl-wwYux-20" value="Department" style="whiteSpace=wrap;html=1;align=center;" vertex="1" parent="1">
          <mxGeometry x="1351" y="596.4" width="100" height="40" as="geometry" />
        </mxCell>
        <mxCell id="xTe9xbJIrPCpYl-wwYux-21" value="&lt;u&gt;dept_code&lt;/u&gt;" style="ellipse;whiteSpace=wrap;html=1;align=center;" vertex="1" parent="1">
          <mxGeometry x="1351" y="643" width="100" height="40" as="geometry" />
        </mxCell>
        <mxCell id="xTe9xbJIrPCpYl-wwYux-22" value="" style="edgeStyle=none;orthogonalLoop=1;jettySize=auto;html=1;rounded=0;entryX=0;entryY=0.5;entryDx=0;entryDy=0;exitX=0;exitY=0.5;exitDx=0;exitDy=0;" edge="1" parent="1" source="xTe9xbJIrPCpYl-wwYux-20" target="xTe9xbJIrPCpYl-wwYux-21">
          <mxGeometry width="100" relative="1" as="geometry">
            <mxPoint x="1330" y="616" as="sourcePoint" />
            <mxPoint x="1340" y="676.4" as="targetPoint" />
            <Array as="points">
              <mxPoint x="1330" y="615" />
              <mxPoint x="1330" y="663.3" />
            </Array>
          </mxGeometry>
        </mxCell>
        <mxCell id="xTe9xbJIrPCpYl-wwYux-23" value="name" style="ellipse;whiteSpace=wrap;html=1;align=center;" vertex="1" parent="1">
          <mxGeometry x="1351" y="691" width="100" height="40" as="geometry" />
        </mxCell>
        <mxCell id="xTe9xbJIrPCpYl-wwYux-24" value="" style="edgeStyle=none;orthogonalLoop=1;jettySize=auto;html=1;rounded=0;entryX=0;entryY=0.5;entryDx=0;entryDy=0;exitX=0;exitY=0.5;exitDx=0;exitDy=0;" edge="1" parent="1" source="xTe9xbJIrPCpYl-wwYux-20" target="xTe9xbJIrPCpYl-wwYux-23">
          <mxGeometry width="100" relative="1" as="geometry">
            <mxPoint x="1280" y="656" as="sourcePoint" />
            <mxPoint x="1340" y="716" as="targetPoint" />
            <Array as="points">
              <mxPoint x="1330" y="615" />
              <mxPoint x="1330" y="711.3" />
            </Array>
          </mxGeometry>
        </mxCell>
        <mxCell id="xTe9xbJIrPCpYl-wwYux-44" value="Course" style="whiteSpace=wrap;html=1;align=center;" vertex="1" parent="1">
          <mxGeometry x="1340" y="349.2" width="100" height="40" as="geometry" />
        </mxCell>
        <mxCell id="xTe9xbJIrPCpYl-wwYux-45" value="&lt;u&gt;course num&lt;/u&gt;" style="ellipse;whiteSpace=wrap;html=1;align=center;" vertex="1" parent="1">
          <mxGeometry x="1340" y="86.8" width="100" height="40" as="geometry" />
        </mxCell>
        <mxCell id="xTe9xbJIrPCpYl-wwYux-46" value="course name" style="ellipse;whiteSpace=wrap;html=1;align=center;" vertex="1" parent="1">
          <mxGeometry x="1340" y="136.8" width="100" height="40" as="geometry" />
        </mxCell>
        <mxCell id="xTe9xbJIrPCpYl-wwYux-47" value="description" style="ellipse;whiteSpace=wrap;html=1;align=center;" vertex="1" parent="1">
          <mxGeometry x="1340" y="196.8" width="100" height="40" as="geometry" />
        </mxCell>
        <mxCell id="xTe9xbJIrPCpYl-wwYux-48" value="credit hours" style="ellipse;whiteSpace=wrap;html=1;align=center;" vertex="1" parent="1">
          <mxGeometry x="1340" y="245.8" width="100" height="40" as="geometry" />
        </mxCell>
        <mxCell id="xTe9xbJIrPCpYl-wwYux-49" value="level" style="ellipse;whiteSpace=wrap;html=1;align=center;" vertex="1" parent="1">
          <mxGeometry x="1340" y="295.8" width="100" height="40" as="geometry" />
        </mxCell>
        <mxCell id="xTe9xbJIrPCpYl-wwYux-50" value="" style="edgeStyle=none;orthogonalLoop=1;jettySize=auto;html=1;rounded=0;entryX=0;entryY=0.5;entryDx=0;entryDy=0;exitX=0;exitY=0.5;exitDx=0;exitDy=0;" edge="1" parent="1" source="xTe9xbJIrPCpYl-wwYux-44" target="xTe9xbJIrPCpYl-wwYux-45">
          <mxGeometry width="100" relative="1" as="geometry">
            <mxPoint x="1320" y="45.80000000000001" as="sourcePoint" />
            <mxPoint x="1330" y="106.20000000000009" as="targetPoint" />
            <Array as="points">
              <mxPoint x="1320" y="369" />
              <mxPoint x="1320" y="104.8" />
            </Array>
          </mxGeometry>
        </mxCell>
        <mxCell id="xTe9xbJIrPCpYl-wwYux-51" value="" style="edgeStyle=none;orthogonalLoop=1;jettySize=auto;html=1;rounded=0;entryX=0;entryY=0.5;entryDx=0;entryDy=0;exitX=0;exitY=0.5;exitDx=0;exitDy=0;" edge="1" parent="1" source="xTe9xbJIrPCpYl-wwYux-44" target="xTe9xbJIrPCpYl-wwYux-46">
          <mxGeometry width="100" relative="1" as="geometry">
            <mxPoint x="1270" y="85.8" as="sourcePoint" />
            <mxPoint x="1330" y="145.8" as="targetPoint" />
            <Array as="points">
              <mxPoint x="1320" y="370" />
              <mxPoint x="1320" y="154.8" />
            </Array>
          </mxGeometry>
        </mxCell>
        <mxCell id="xTe9xbJIrPCpYl-wwYux-52" value="" style="edgeStyle=none;orthogonalLoop=1;jettySize=auto;html=1;rounded=0;entryX=0;entryY=0.5;entryDx=0;entryDy=0;exitX=0;exitY=0.5;exitDx=0;exitDy=0;" edge="1" parent="1" source="xTe9xbJIrPCpYl-wwYux-44" target="xTe9xbJIrPCpYl-wwYux-47">
          <mxGeometry width="100" relative="1" as="geometry">
            <mxPoint x="1270" y="149.8" as="sourcePoint" />
            <mxPoint x="1330" y="209.8" as="targetPoint" />
            <Array as="points">
              <mxPoint x="1320" y="370" />
              <mxPoint x="1320" y="214.8" />
            </Array>
          </mxGeometry>
        </mxCell>
        <mxCell id="xTe9xbJIrPCpYl-wwYux-53" value="" style="edgeStyle=none;orthogonalLoop=1;jettySize=auto;html=1;rounded=0;entryX=0;entryY=0.5;entryDx=0;entryDy=0;exitX=0;exitY=0.5;exitDx=0;exitDy=0;" edge="1" parent="1" source="xTe9xbJIrPCpYl-wwYux-44" target="xTe9xbJIrPCpYl-wwYux-48">
          <mxGeometry width="100" relative="1" as="geometry">
            <mxPoint x="1290" y="94.8" as="sourcePoint" />
            <mxPoint x="1340" y="249.8" as="targetPoint" />
            <Array as="points">
              <mxPoint x="1320" y="370" />
              <mxPoint x="1320" y="264.8" />
            </Array>
          </mxGeometry>
        </mxCell>
        <mxCell id="xTe9xbJIrPCpYl-wwYux-54" value="" style="edgeStyle=none;orthogonalLoop=1;jettySize=auto;html=1;rounded=0;entryX=0;entryY=0.5;entryDx=0;entryDy=0;exitX=0;exitY=0.5;exitDx=0;exitDy=0;" edge="1" parent="1" source="xTe9xbJIrPCpYl-wwYux-44" target="xTe9xbJIrPCpYl-wwYux-49">
          <mxGeometry width="100" relative="1" as="geometry">
            <mxPoint x="1270" y="259.8" as="sourcePoint" />
            <mxPoint x="1330" y="319.79999999999995" as="targetPoint" />
            <Array as="points">
              <mxPoint x="1320" y="369" />
              <mxPoint x="1320" y="314.79999999999995" />
            </Array>
          </mxGeometry>
        </mxCell>
        <mxCell id="xTe9xbJIrPCpYl-wwYux-56" style="edgeStyle=orthogonalEdgeStyle;rounded=0;orthogonalLoop=1;jettySize=auto;html=1;exitX=0.5;exitY=1;exitDx=0;exitDy=0;entryX=1;entryY=0.25;entryDx=0;entryDy=0;shape=link;" edge="1" parent="1" source="xTe9xbJIrPCpYl-wwYux-55" target="X2fCzPqbsDA_nEbmkDdk-7">
          <mxGeometry relative="1" as="geometry">
            <mxPoint x="1070" y="660" as="targetPoint" />
          </mxGeometry>
        </mxCell>
        <mxCell id="xTe9xbJIrPCpYl-wwYux-107" value="N" style="edgeLabel;html=1;align=center;verticalAlign=middle;resizable=0;points=[];fontSize=14;" connectable="0" vertex="1" parent="xTe9xbJIrPCpYl-wwYux-56">
          <mxGeometry x="-0.9508" y="1" relative="1" as="geometry">
            <mxPoint x="8" y="-2" as="offset" />
          </mxGeometry>
        </mxCell>
        <mxCell id="xTe9xbJIrPCpYl-wwYux-58" style="edgeStyle=orthogonalEdgeStyle;rounded=0;orthogonalLoop=1;jettySize=auto;html=1;exitX=0.5;exitY=0;exitDx=0;exitDy=0;entryX=1;entryY=0.5;entryDx=0;entryDy=0;" edge="1" parent="1" source="xTe9xbJIrPCpYl-wwYux-55" target="xTe9xbJIrPCpYl-wwYux-44">
          <mxGeometry relative="1" as="geometry" />
        </mxCell>
        <mxCell id="xTe9xbJIrPCpYl-wwYux-106" value="1" style="edgeLabel;html=1;align=center;verticalAlign=middle;resizable=0;points=[];fontSize=14;" connectable="0" vertex="1" parent="xTe9xbJIrPCpYl-wwYux-58">
          <mxGeometry x="-0.5551" y="-2" relative="1" as="geometry">
            <mxPoint x="8" y="23" as="offset" />
          </mxGeometry>
        </mxCell>
        <mxCell id="xTe9xbJIrPCpYl-wwYux-55" value="enrolled in" style="shape=rhombus;perimeter=rhombusPerimeter;whiteSpace=wrap;html=1;align=center;" vertex="1" parent="1">
          <mxGeometry x="1460" y="504.00000000000006" width="120" height="60" as="geometry" />
        </mxCell>
        <mxCell id="xTe9xbJIrPCpYl-wwYux-80" style="edgeStyle=orthogonalEdgeStyle;rounded=0;orthogonalLoop=1;jettySize=auto;html=1;exitX=0;exitY=0.5;exitDx=0;exitDy=0;entryX=0;entryY=0.5;entryDx=0;entryDy=0;endArrow=none;endFill=0;startArrow=classic;startFill=1;" edge="1" parent="1" source="xTe9xbJIrPCpYl-wwYux-60" target="xTe9xbJIrPCpYl-wwYux-71">
          <mxGeometry relative="1" as="geometry" />
        </mxCell>
        <mxCell id="xTe9xbJIrPCpYl-wwYux-60" value="CGPA" style="ellipse;whiteSpace=wrap;html=1;align=center;" vertex="1" parent="1">
          <mxGeometry x="1051" y="69" width="100" height="40" as="geometry" />
        </mxCell>
        <mxCell id="xTe9xbJIrPCpYl-wwYux-79" style="edgeStyle=orthogonalEdgeStyle;rounded=0;orthogonalLoop=1;jettySize=auto;html=1;exitX=0;exitY=0.5;exitDx=0;exitDy=0;entryX=0;entryY=0.5;entryDx=0;entryDy=0;endArrow=none;endFill=0;startArrow=classic;startFill=1;" edge="1" parent="1" source="xTe9xbJIrPCpYl-wwYux-62" target="xTe9xbJIrPCpYl-wwYux-71">
          <mxGeometry relative="1" as="geometry">
            <mxPoint x="1011" y="338.9999999999999" as="targetPoint" />
          </mxGeometry>
        </mxCell>
        <mxCell id="xTe9xbJIrPCpYl-wwYux-62" value="contact" style="ellipse;whiteSpace=wrap;html=1;align=center;" vertex="1" parent="1">
          <mxGeometry x="1050.25" y="118.39999999999998" width="100" height="40" as="geometry" />
        </mxCell>
        <mxCell id="xTe9xbJIrPCpYl-wwYux-77" style="edgeStyle=orthogonalEdgeStyle;rounded=0;orthogonalLoop=1;jettySize=auto;html=1;exitX=0;exitY=0.5;exitDx=0;exitDy=0;entryX=0;entryY=0.5;entryDx=0;entryDy=0;startArrow=classic;startFill=1;endArrow=none;endFill=0;" edge="1" parent="1" source="xTe9xbJIrPCpYl-wwYux-63" target="xTe9xbJIrPCpYl-wwYux-71">
          <mxGeometry relative="1" as="geometry" />
        </mxCell>
        <mxCell id="xTe9xbJIrPCpYl-wwYux-63" value="id" style="ellipse;whiteSpace=wrap;html=1;align=center;fontStyle=4;" vertex="1" parent="1">
          <mxGeometry x="1050.5" y="169" width="100" height="40" as="geometry" />
        </mxCell>
        <mxCell id="xTe9xbJIrPCpYl-wwYux-76" style="edgeStyle=orthogonalEdgeStyle;rounded=0;orthogonalLoop=1;jettySize=auto;html=1;exitX=0;exitY=0.5;exitDx=0;exitDy=0;entryX=0;entryY=0.5;entryDx=0;entryDy=0;endArrow=none;endFill=0;startArrow=classic;startFill=1;" edge="1" parent="1" source="xTe9xbJIrPCpYl-wwYux-67" target="xTe9xbJIrPCpYl-wwYux-71">
          <mxGeometry relative="1" as="geometry" />
        </mxCell>
        <mxCell id="xTe9xbJIrPCpYl-wwYux-67" value="ssn" style="ellipse;whiteSpace=wrap;html=1;align=center;" vertex="1" parent="1">
          <mxGeometry x="1050.25" y="222" width="100" height="40" as="geometry" />
        </mxCell>
        <mxCell id="xTe9xbJIrPCpYl-wwYux-75" style="edgeStyle=orthogonalEdgeStyle;rounded=0;orthogonalLoop=1;jettySize=auto;html=1;exitX=0;exitY=0.5;exitDx=0;exitDy=0;entryX=0;entryY=0.5;entryDx=0;entryDy=0;endArrow=none;endFill=0;startArrow=classic;startFill=1;" edge="1" parent="1" source="xTe9xbJIrPCpYl-wwYux-68" target="xTe9xbJIrPCpYl-wwYux-71">
          <mxGeometry relative="1" as="geometry" />
        </mxCell>
        <mxCell id="xTe9xbJIrPCpYl-wwYux-68" value="gender" style="ellipse;whiteSpace=wrap;html=1;align=center;" vertex="1" parent="1">
          <mxGeometry x="1050.25" y="278" width="100" height="40" as="geometry" />
        </mxCell>
        <mxCell id="xTe9xbJIrPCpYl-wwYux-74" style="edgeStyle=orthogonalEdgeStyle;rounded=0;orthogonalLoop=1;jettySize=auto;html=1;exitX=0;exitY=0.5;exitDx=0;exitDy=0;entryX=0;entryY=0.5;entryDx=0;entryDy=0;endArrow=none;endFill=0;startArrow=classic;startFill=1;" edge="1" parent="1" source="xTe9xbJIrPCpYl-wwYux-69" target="xTe9xbJIrPCpYl-wwYux-71">
          <mxGeometry relative="1" as="geometry">
            <mxPoint x="1049.8695652173915" y="469" as="targetPoint" />
            <Array as="points">
              <mxPoint x="1030" y="349" />
              <mxPoint x="1030" y="450" />
            </Array>
          </mxGeometry>
        </mxCell>
        <mxCell id="xTe9xbJIrPCpYl-wwYux-69" value="name" style="ellipse;whiteSpace=wrap;html=1;align=center;" vertex="1" parent="1">
          <mxGeometry x="1050.25" y="329.4" width="100" height="40" as="geometry" />
        </mxCell>
        <mxCell id="xTe9xbJIrPCpYl-wwYux-73" style="edgeStyle=orthogonalEdgeStyle;rounded=0;orthogonalLoop=1;jettySize=auto;html=1;exitX=0;exitY=0.5;exitDx=0;exitDy=0;entryX=0;entryY=0.5;entryDx=0;entryDy=0;endArrow=none;endFill=0;startArrow=classic;startFill=1;" edge="1" parent="1" source="xTe9xbJIrPCpYl-wwYux-70" target="xTe9xbJIrPCpYl-wwYux-71">
          <mxGeometry relative="1" as="geometry" />
        </mxCell>
        <mxCell id="xTe9xbJIrPCpYl-wwYux-70" value="birthdate" style="ellipse;whiteSpace=wrap;html=1;align=center;" vertex="1" parent="1">
          <mxGeometry x="1050.25" y="381.4" width="100" height="40" as="geometry" />
        </mxCell>
        <mxCell id="xTe9xbJIrPCpYl-wwYux-87" style="edgeStyle=orthogonalEdgeStyle;rounded=0;orthogonalLoop=1;jettySize=auto;html=1;exitX=1;exitY=0.5;exitDx=0;exitDy=0;entryX=0;entryY=0.5;entryDx=0;entryDy=0;shape=link;" edge="1" parent="1" source="xTe9xbJIrPCpYl-wwYux-71" target="xTe9xbJIrPCpYl-wwYux-86">
          <mxGeometry relative="1" as="geometry">
            <Array as="points">
              <mxPoint x="1153" y="450" />
              <mxPoint x="1210" y="450" />
            </Array>
          </mxGeometry>
        </mxCell>
        <mxCell id="xTe9xbJIrPCpYl-wwYux-101" value="N" style="edgeLabel;html=1;align=center;verticalAlign=middle;resizable=0;points=[];fontSize=13;" connectable="0" vertex="1" parent="xTe9xbJIrPCpYl-wwYux-87">
          <mxGeometry x="0.5062" y="3" relative="1" as="geometry">
            <mxPoint x="-12" y="-8" as="offset" />
          </mxGeometry>
        </mxCell>
        <mxCell id="xTe9xbJIrPCpYl-wwYux-96" style="edgeStyle=orthogonalEdgeStyle;rounded=0;orthogonalLoop=1;jettySize=auto;html=1;exitX=0.5;exitY=1;exitDx=0;exitDy=0;entryX=0.5;entryY=0;entryDx=0;entryDy=0;endArrow=none;endFill=0;" edge="1" parent="1" source="xTe9xbJIrPCpYl-wwYux-71" target="xTe9xbJIrPCpYl-wwYux-116">
          <mxGeometry relative="1" as="geometry">
            <mxPoint x="1140" y="471.60000000000014" as="targetPoint" />
          </mxGeometry>
        </mxCell>
        <mxCell id="xTe9xbJIrPCpYl-wwYux-108" value="1" style="edgeLabel;html=1;align=center;verticalAlign=middle;resizable=0;points=[];fontSize=14;" connectable="0" vertex="1" parent="xTe9xbJIrPCpYl-wwYux-96">
          <mxGeometry x="0.6897" y="1" relative="1" as="geometry">
            <mxPoint x="7" as="offset" />
          </mxGeometry>
        </mxCell>
        <mxCell id="xTe9xbJIrPCpYl-wwYux-71" value="Student" style="whiteSpace=wrap;html=1;align=center;" vertex="1" parent="1">
          <mxGeometry x="1052.5" y="430" width="100" height="40" as="geometry" />
        </mxCell>
        <mxCell id="xTe9xbJIrPCpYl-wwYux-84" style="edgeStyle=orthogonalEdgeStyle;rounded=0;orthogonalLoop=1;jettySize=auto;html=1;exitX=0;exitY=0.5;exitDx=0;exitDy=0;entryX=0.5;entryY=1;entryDx=0;entryDy=0;shape=link;" edge="1" parent="1" source="xTe9xbJIrPCpYl-wwYux-82" target="xTe9xbJIrPCpYl-wwYux-8">
          <mxGeometry relative="1" as="geometry">
            <Array as="points">
              <mxPoint x="950" y="600" />
              <mxPoint x="920" y="600" />
              <mxPoint x="920" y="503" />
            </Array>
          </mxGeometry>
        </mxCell>
        <mxCell id="xTe9xbJIrPCpYl-wwYux-100" value="N" style="edgeLabel;html=1;align=center;verticalAlign=middle;resizable=0;points=[];fontSize=14;" connectable="0" vertex="1" parent="xTe9xbJIrPCpYl-wwYux-84">
          <mxGeometry x="0.6067" y="-2" relative="1" as="geometry">
            <mxPoint x="18" y="62" as="offset" />
          </mxGeometry>
        </mxCell>
        <mxCell id="xTe9xbJIrPCpYl-wwYux-85" style="edgeStyle=orthogonalEdgeStyle;rounded=0;orthogonalLoop=1;jettySize=auto;html=1;exitX=1;exitY=0.5;exitDx=0;exitDy=0;entryX=0;entryY=0.25;entryDx=0;entryDy=0;jumpStyle=arc;jumpSize=23;endArrow=none;endFill=0;" edge="1" parent="1" source="xTe9xbJIrPCpYl-wwYux-82" target="xTe9xbJIrPCpYl-wwYux-20">
          <mxGeometry relative="1" as="geometry">
            <Array as="points">
              <mxPoint x="1070" y="600" />
              <mxPoint x="1351" y="600" />
            </Array>
          </mxGeometry>
        </mxCell>
        <mxCell id="xTe9xbJIrPCpYl-wwYux-99" value="1" style="edgeLabel;html=1;align=center;verticalAlign=middle;resizable=0;points=[];fontSize=13;" connectable="0" vertex="1" parent="xTe9xbJIrPCpYl-wwYux-85">
          <mxGeometry x="0.681" y="-1" relative="1" as="geometry">
            <mxPoint x="-229" y="-11" as="offset" />
          </mxGeometry>
        </mxCell>
        <mxCell id="xTe9xbJIrPCpYl-wwYux-82" value="specialized in" style="shape=rhombus;perimeter=rhombusPerimeter;whiteSpace=wrap;html=1;align=center;" vertex="1" parent="1">
          <mxGeometry x="950" y="571" width="120" height="60" as="geometry" />
        </mxCell>
        <mxCell id="xTe9xbJIrPCpYl-wwYux-88" style="edgeStyle=orthogonalEdgeStyle;rounded=0;orthogonalLoop=1;jettySize=auto;html=1;exitX=0.5;exitY=1;exitDx=0;exitDy=0;entryX=0.25;entryY=0;entryDx=0;entryDy=0;endArrow=none;endFill=0;" edge="1" parent="1" source="xTe9xbJIrPCpYl-wwYux-86" target="xTe9xbJIrPCpYl-wwYux-20">
          <mxGeometry relative="1" as="geometry">
            <mxPoint x="1320" y="550" as="targetPoint" />
            <Array as="points">
              <mxPoint x="1270" y="560" />
              <mxPoint x="1376" y="560" />
            </Array>
          </mxGeometry>
        </mxCell>
        <mxCell id="xTe9xbJIrPCpYl-wwYux-103" value="1" style="edgeLabel;html=1;align=center;verticalAlign=middle;resizable=0;points=[];fontSize=13;" connectable="0" vertex="1" parent="xTe9xbJIrPCpYl-wwYux-88">
          <mxGeometry x="0.2453" relative="1" as="geometry">
            <mxPoint x="-36" y="-97" as="offset" />
          </mxGeometry>
        </mxCell>
        <mxCell id="xTe9xbJIrPCpYl-wwYux-86" value="student of" style="shape=rhombus;perimeter=rhombusPerimeter;whiteSpace=wrap;html=1;align=center;" vertex="1" parent="1">
          <mxGeometry x="1210" y="387" width="120" height="60" as="geometry" />
        </mxCell>
        <mxCell id="xTe9xbJIrPCpYl-wwYux-92" style="edgeStyle=orthogonalEdgeStyle;rounded=0;orthogonalLoop=1;jettySize=auto;html=1;exitX=0.5;exitY=1;exitDx=0;exitDy=0;entryX=0.75;entryY=0;entryDx=0;entryDy=0;endArrow=none;endFill=0;" edge="1" parent="1" source="xTe9xbJIrPCpYl-wwYux-91" target="xTe9xbJIrPCpYl-wwYux-20">
          <mxGeometry relative="1" as="geometry" />
        </mxCell>
        <mxCell id="xTe9xbJIrPCpYl-wwYux-105" value="N" style="edgeLabel;html=1;align=center;verticalAlign=middle;resizable=0;points=[];fontSize=13;" connectable="0" vertex="1" parent="xTe9xbJIrPCpYl-wwYux-92">
          <mxGeometry x="0.0591" relative="1" as="geometry">
            <mxPoint x="-11" y="-47" as="offset" />
          </mxGeometry>
        </mxCell>
        <mxCell id="xTe9xbJIrPCpYl-wwYux-93" style="edgeStyle=orthogonalEdgeStyle;rounded=0;orthogonalLoop=1;jettySize=auto;html=1;exitX=0.5;exitY=0;exitDx=0;exitDy=0;entryX=0.25;entryY=1;entryDx=0;entryDy=0;shape=link;" edge="1" parent="1" source="xTe9xbJIrPCpYl-wwYux-91" target="xTe9xbJIrPCpYl-wwYux-44">
          <mxGeometry relative="1" as="geometry" />
        </mxCell>
        <mxCell id="xTe9xbJIrPCpYl-wwYux-104" value="N" style="edgeLabel;html=1;align=center;verticalAlign=middle;resizable=0;points=[];fontSize=13;" connectable="0" vertex="1" parent="xTe9xbJIrPCpYl-wwYux-93">
          <mxGeometry x="-0.0978" y="-2" relative="1" as="geometry">
            <mxPoint x="17" y="25" as="offset" />
          </mxGeometry>
        </mxCell>
        <mxCell id="xTe9xbJIrPCpYl-wwYux-91" value="offered by" style="shape=rhombus;perimeter=rhombusPerimeter;whiteSpace=wrap;html=1;align=center;" vertex="1" parent="1">
          <mxGeometry x="1330" y="461" width="120" height="60" as="geometry" />
        </mxCell>
        <mxCell id="xTe9xbJIrPCpYl-wwYux-97" value="&lt;u&gt;grade&lt;/u&gt;" style="ellipse;whiteSpace=wrap;html=1;align=center;" vertex="1" parent="1">
          <mxGeometry x="1130" y="708.6" width="100" height="40" as="geometry" />
        </mxCell>
        <mxCell id="xTe9xbJIrPCpYl-wwYux-115" value="enrollment" style="shape=ext;margin=3;double=1;whiteSpace=wrap;html=1;align=center;" vertex="1" parent="1">
          <mxGeometry x="1090" y="651" width="100" height="40" as="geometry" />
        </mxCell>
        <mxCell id="xTe9xbJIrPCpYl-wwYux-116" value="enrolled in" style="shape=rhombus;double=1;perimeter=rhombusPerimeter;whiteSpace=wrap;html=1;align=center;" vertex="1" parent="1">
          <mxGeometry x="1085" y="501.6" width="110" height="55" as="geometry" />
        </mxCell>
        <mxCell id="xTe9xbJIrPCpYl-wwYux-118" value="has" style="shape=rhombus;double=1;perimeter=rhombusPerimeter;whiteSpace=wrap;html=1;align=center;" vertex="1" parent="1">
          <mxGeometry x="1034.0800000000002" y="757" width="90" height="45" as="geometry" />
        </mxCell>
        <mxCell id="xTe9xbJIrPCpYl-wwYux-120" value="&lt;div style=&quot;font-size: 21px;&quot;&gt;&lt;font style=&quot;font-size: 21px;&quot;&gt;The &quot;semester course&quot; entity&lt;/font&gt;&lt;/div&gt;&lt;div style=&quot;font-size: 21px;&quot;&gt;&lt;font style=&quot;font-size: 21px;&quot;&gt;- is an instance of a course enrolled in a&amp;nbsp;&lt;/font&gt;&lt;/div&gt;&lt;div style=&quot;font-size: 21px;&quot;&gt;&lt;font style=&quot;font-size: 21px;&quot;&gt;&amp;nbsp; &amp;nbsp;certain semester at a certain year&lt;/font&gt;&lt;/div&gt;&lt;div style=&quot;font-size: 21px;&quot;&gt;&lt;font style=&quot;font-size: 21px;&quot;&gt;- the &quot;semester course&quot; code is constructed using&lt;/font&gt;&lt;/div&gt;&lt;div style=&quot;font-size: 21px;&quot;&gt;&lt;font style=&quot;font-size: 21px;&quot;&gt;&amp;nbsp; the instance&#39;s own data&lt;/font&gt;&lt;/div&gt;&lt;div style=&quot;font-size: 21px;&quot;&gt;&lt;font style=&quot;font-size: 21px;&quot;&gt;- Example:&lt;/font&gt;&lt;/div&gt;&lt;div style=&quot;font-size: 21px;&quot;&gt;&lt;font style=&quot;font-size: 21px;&quot;&gt;&lt;span style=&quot;white-space: pre;&quot;&gt;&#x9;&lt;/span&gt;+ semester = Fall&lt;br&gt;&lt;/font&gt;&lt;/div&gt;&lt;div style=&quot;font-size: 21px;&quot;&gt;&lt;font style=&quot;font-size: 21px;&quot;&gt;&lt;span style=&quot;white-space: pre;&quot;&gt;&#x9;&lt;/span&gt;+ year = 2024&lt;br&gt;&lt;/font&gt;&lt;/div&gt;&lt;div style=&quot;font-size: 21px;&quot;&gt;&lt;font style=&quot;font-size: 21px;&quot;&gt;&lt;span style=&quot;white-space: pre;&quot;&gt;&#x9;&lt;/span&gt;+ course code = ENJ702&lt;br&gt;&lt;/font&gt;&lt;/div&gt;&lt;div style=&quot;font-size: 21px;&quot;&gt;&lt;font style=&quot;font-size: 21px;&quot;&gt;&lt;span style=&quot;white-space: pre;&quot;&gt;&#x9;&lt;/span&gt;+ the &quot;sem course&quot; code will be: F-24-ENJ702&lt;/font&gt;&lt;br&gt;&lt;/div&gt;" style="text;html=1;align=left;verticalAlign=top;resizable=0;points=[];autosize=1;strokeColor=none;fillColor=none;" vertex="1" parent="1">
          <mxGeometry x="1154" y="872" width="500" height="270" as="geometry" />
        </mxCell>
        <mxCell id="K8FCEOsuccp3iBZuHQL1-3" value="photo" style="ellipse;whiteSpace=wrap;html=1;align=center;" vertex="1" parent="1">
          <mxGeometry x="1049.25" y="19" width="100" height="40" as="geometry" />
        </mxCell>
        <mxCell id="K8FCEOsuccp3iBZuHQL1-4" value="" style="edgeStyle=none;orthogonalLoop=1;jettySize=auto;html=1;rounded=0;exitX=0;exitY=0.5;exitDx=0;exitDy=0;entryX=0;entryY=0.5;entryDx=0;entryDy=0;endArrow=none;endFill=0;startArrow=classic;startFill=1;" edge="1" parent="1" source="K8FCEOsuccp3iBZuHQL1-3" target="xTe9xbJIrPCpYl-wwYux-71">
          <mxGeometry width="100" relative="1" as="geometry">
            <mxPoint x="950" y="40" as="sourcePoint" />
            <mxPoint x="1030" y="532.5806451612904" as="targetPoint" />
            <Array as="points">
              <mxPoint x="1030" y="40" />
              <mxPoint x="1030" y="450" />
            </Array>
          </mxGeometry>
        </mxCell>
        <mxCell id="K8FCEOsuccp3iBZuHQL1-6" value="pre-requisites" style="ellipse;shape=doubleEllipse;margin=3;whiteSpace=wrap;html=1;align=center;" vertex="1" parent="1">
          <mxGeometry x="1340" y="39" width="100" height="40" as="geometry" />
        </mxCell>
        <mxCell id="K8FCEOsuccp3iBZuHQL1-7" value="" style="edgeStyle=none;orthogonalLoop=1;jettySize=auto;html=1;rounded=0;entryX=0;entryY=0.5;entryDx=0;entryDy=0;exitX=0;exitY=0.5;exitDx=0;exitDy=0;" edge="1" parent="1" source="xTe9xbJIrPCpYl-wwYux-44" target="K8FCEOsuccp3iBZuHQL1-6">
          <mxGeometry width="100" relative="1" as="geometry">
            <mxPoint x="1270" y="312.5397019159226" as="sourcePoint" />
            <mxPoint x="1310" y="50" as="targetPoint" />
            <Array as="points">
              <mxPoint x="1320" y="369" />
              <mxPoint x="1320" y="60" />
            </Array>
          </mxGeometry>
        </mxCell>
      </root>
    </mxGraphModel>
  </diagram>
</mxfile>
